<?xml version="1.0" standalone="no"?><!DOCTYPE svg PUBLIC "-//W3C//DTD SVG 1.1//EN" "http://www.w3.org/Graphics/SVG/1.1/DTD/svg11.dtd"><svg t="1774931210425" class="icon" viewBox="0 0 1024 1024" version="1.1" xmlns="http://www.w3.org/2000/svg" p-id="13950" xmlns:xlink="http://www.w3.org/1999/xlink" width="200" height="200"><path d="M121.956308 270.14431013h661.57273334v483.53262459H121.956308z" fill="#EEC887" p-id="13951"></path><path d="M783.52904134 270.14431013h118.51465066v483.53262459h-118.51465066z" fill="#68553A" p-id="13952"></path><path d="M177.37039805 335.56868742h543.41559292v273.49534776h-543.41559292z" fill="#4A3F29" p-id="13953"></path><path d="M184.52060323 342.71889261h536.26538774v266.34514257h-536.26538774z" fill="#D3B073" p-id="13954"></path><path d="M121.956308 640.8824482h661.57273334v88.66254409H121.956308z" fill="#BF9E6D" p-id="13955"></path><path d="M204.5411777 653.39530722v8.04398082h-8.04398081v55.95035545H188.45321606v-55.95035545h-8.04398081v-8.04398082H204.5411777zM222.77420087 653.39530722c1.78755127 0 3.57510257 0.35751025 5.36265389 1.07253079 1.60879617 0.71502051 3.03883719 1.60879617 4.29012309 2.86008206 1.25128592 1.25128592 2.14506155 2.68132694 2.86008209 4.29012311 0.71502051 1.60879617 1.07253078 3.39634746 1.07253078 5.36265388v50.40894643h-8.04398082v-20.02057448H217.05403675v20.02057448h-8.0439808v-50.40894643c0-1.78755127 0.35751025-3.57510257 1.07253074-5.36265388 0.71502051-1.60879617 1.60879617-3.03883719 2.8600821-4.29012311 1.25128592-1.25128592 2.68132694-2.14506155 4.2901231-2.86008206 1.96630643-0.71502051 3.75385772-1.07253078 5.54140898-1.07253079z m5.54140903 35.92978097v-22.34439113c0-1.60879617-0.5362654-2.86008207-1.60879617-3.93261285-1.07253078-1.07253078-2.32381667-1.60879617-3.93261286-1.60879617-1.60879617 0-2.86008207 0.5362654-3.93261282 1.60879617-1.07253078 1.07253078-1.60879617 2.32381667-1.60879616 3.93261285v22.34439113h11.08281801zM267.28422806 658.22169571c0.89377566 1.25128592 1.78755127 2.50257182 2.32381668 3.93261287 0.5362654 1.43004102 0.89377566 3.03883719 0.89377565 4.64763332v16.80298219c0 2.14506155-0.35751025 3.93261282-1.25128589 5.541409-1.07253078 2.32381667-2.68132694 4.29012309-4.82638848 5.72016412-2.14506155 1.43004102-4.64763334 2.14506155-7.50771546 2.14506155h-5.54140899v20.02057448h-8.04398082v-63.99433626h13.58538981c2.14506155 0 4.11136799 0.35751025 5.89891927 1.2512859 1.60879617 1.25128592 3.21759233 2.50257182 4.46887823 3.93261283z m-10.54655263 31.10339248c1.60879617 0 2.86008207-0.5362654 3.93261288-1.60879614 1.07253078-1.07253078 1.60879617-2.32381667 1.60879616-3.93261286v-16.80298213c0-1.60879617-0.5362654-2.86008207-1.60879616-3.93261285-1.07253078-1.07253078-2.32381667-1.60879617-3.93261288-1.60879617h-5.54140901v27.88580015h5.54140901zM299.63890646 661.26053293h-15.9092065v27.88580016h15.9092065v8.0439808h-15.9092065v11.97659366h15.9092065v8.04398082h-23.9531873V653.21655212h23.9531873v8.04398081zM693.25770107 645.88759179c2.32381667 0 4.46887824 0.35751025 6.43518464 1.25128592 1.96630643 0.89377566 3.75385772 2.14506155 5.36265387 3.57510257 1.43004102 1.43004102 2.68132694 3.21759233 3.57510259 5.36265389 0.89377566 1.96630643 1.25128592 4.11136799 1.25128589 6.43518465V724.71860379h-9.8315321v-24.66820783h-13.76414494V724.71860379H676.4547189v-62.02802983c0-2.32381667 0.35751025-4.46887824 1.25128592-6.43518466 0.89377566-1.96630643 2.14506155-3.75385772 3.57510257-5.36265388 1.43004102-1.43004102 3.21759233-2.68132694 5.36265389-3.57510258s4.29012309-1.43004102 6.61393979-1.43004105z m6.97145002 44.33127207v-27.5282899c0-1.96630643-0.71502051-3.57510257-1.96630641-4.82638848-1.43004102-1.43004102-3.03883719-1.96630643-4.8263885-1.96630644-1.96630643 0-3.57510257 0.71502051-4.82638849 1.96630644-1.43004102 1.43004102-1.96630643 3.03883719-1.96630641 4.82638848v27.5282899h13.58538981z" fill="#D63737" p-id="13956"></path><path d="M718.46217427 551.86239383h-530.90273385v-151.94185987h530.90273385v151.94185987z m-507.66456705-23.23816682h484.42640024v-105.46552625h-484.42640024v105.46552625z" fill="#FFFFFF" p-id="13957"></path><path d="M325.37964508 475.89146388m-40.39865922 0a40.39865921 40.39865921 0 1 0 80.79731843 0 40.39865921 40.39865921 0 1 0-80.79731843 0Z" fill="#68543A" p-id="13958"></path><path d="M582.96578631 477.67901519m-40.39865921 0a40.39865921 40.39865921 0 1 0 80.7973184 0 40.39865921 40.39865921 0 1 0-80.7973184 0Z" fill="#68543A" p-id="13959"></path><path d="M397.23920704 449.97197015h110.82818014V504.84979483h-110.82818014z" fill="#D63737" p-id="13960"></path></svg>